{
  "accessors": [
    {
      "bufferView": 2,
      "componentType": 5126,
      "count": 753,
      "max": [
        3.2303776741027832,
        3.199901819229126,
        4.4862713813781738
      ],
      "min": [
        -1.595482349395752,
        -5.3500089645385742,
        -1.0131603479385376
      ],
      "type": "VEC3"
    },
    {
      "bufferView": 2,
      "byteOffset": 9036,
      "componentType": 5126,
      "count": 753,
      "max": [
        1,
        1,
        1
      ],
      "min": [
        -1,
        -1,
        -1
      ],
      "type": "VEC3"
    },
    {
      "bufferView": 1,
      "componentType": 5126,
      "count": 753,
      "max": [
        0.99973374605178833,
        0.99710357189178467
      ],
      "min": [
        0.0028748302720487118,
        0.003548105014488101
      ],
      "type": "VEC2"
    },
    {
      "bufferView": 0,
      "componentType": 5125,
      "count": 1464,
      "max": [
        752
      ],
      "min": [
        0
      ],
      "type": "SCALAR"
    },
    {
      "bufferView": 2,
      "byteOffset": 18072,
      "componentType": 5126,
      "count": 4,
      "max": [
        1,
        1,
        0
      ],
      "min": [
        -1,
        -1,
        0
      ],
      "type": "VEC3"
    },
    {
      "bufferView": 2,
      "byteOffset": 18120,
      "componentType": 5126,
      "count": 4,
      "max": [
        0,
        0,
        1
      ],
      "min": [
        0,
        0,
        1
      ],
      "type": "VEC3"
    },
    {
      "bufferView": 1,
      "byteOffset": 6024,
      "componentType": 5126,
      "count": 4,
      "max": [
        1,
        1
      ],
      "min": [
        0,
        0
      ],
      "type": "VEC2"
    },
    {
      "bufferView": 0,
      "byteOffset": 5856,
      "componentType": 5125,
      "count": 6,
      "max": [
        3
      ],
      "min": [
        0
      ],
      "type": "SCALAR"
    },
    {
      "bufferView": 2,
      "byteOffset": 18168,
      "componentType": 5126,
      "count": 1518,
      "max": [
        2.2538471221923828,
        134.900390625,
        4.8325343132019043
      ],
      "min": [
        -13.974485397338867,
        -1,
        -23.918388366699219
      ],
      "type": "VEC3"
    },
    {
      "bufferView": 2,
      "byteOffset": 36384,
      "componentType": 5126,
      "count": 1518,
      "max": [
        1,
        1,
        1
      ],
      "min": [
        -1,
        -1,
        -1
      ],
      "type": "VEC3"
    },
    {
      "bufferView": 1,
      "byteOffset": 6056,
      "componentType": 5126,
      "count": 1518,
      "max": [
        0.9997982382774353,
        0.96648085117340088
      ],
      "min": [
        0.0088334372267127037,
        0.004456076305359602
      ],
      "type": "VEC2"
    },
    {
      "bufferView": 0,
      "byteOffset": 5880,
      "componentType": 5125,
      "count": 2868,
      "max": [
        1517
      ],
      "min": [
        0
      ],
      "type": "SCALAR"
    },
    {
      "bufferView": 2,
      "byteOffset": 54600,
      "componentType": 5126,
      "count": 1518,
      "max": [
        2.2538471221923828,
        134.900390625,
        4.8325343132019043
      ],
      "min": [
        -13.974485397338867,
        -1,
        -23.918388366699219
      ],
      "type": "VEC3"
    },
    {
      "bufferView": 2,
      "byteOffset": 72816,
      "componentType": 5126,
      "count": 1518,
      "max": [
        1,
        1,
        1
      ],
      "min": [
        -1,
        -1,
        -1
      ],
      "type": "VEC3"
    },
    {
      "bufferView": 1,
      "byteOffset": 18200,
      "componentType": 5126,
      "count": 1518,
      "max": [
        0.9997982382774353,
        0.96648085117340088
      ],
      "min": [
        0.0088334372267127037,
        0.004456076305359602
      ],
      "type": "VEC2"
    },
    {
      "bufferView": 0,
      "byteOffset": 17352,
      "componentType": 5125,
      "count": 2868,
      "max": [
        1517
      ],
      "min": [
        0
      ],
      "type": "SCALAR"
    },
    {
      "bufferView": 2,
      "byteOffset": 91032,
      "componentType": 5126,
      "count": 1020,
      "max": [
        1.8276840448379517,
        1.9217379093170166,
        8.0988101959228516
      ],
      "min": [
        -1.8276840448379517,
        -1.9217379093170166,
        -1.0757086277008057
      ],
      "type": "VEC3"
    },
    {
      "bufferView": 2,
      "byteOffset": 103272,
      "componentType": 5126,
      "count": 1020,
      "max": [
        0.99504983425140381,
        0.95801031589508057,
        1
      ],
      "min": [
        -0.99504983425140381,
        -0.95801031589508057,
        -1
      ],
      "type": "VEC3"
    },
    {
      "bufferView": 1,
      "byteOffset": 30344,
      "componentType": 5126,
      "count": 1020,
      "max": [
        0.99472314119338989,
        0.9959796667098999
      ],
      "min": [
        0.0035910042934119701,
        0.0080354791134595871
      ],
      "type": "VEC2"
    },
    {
      "bufferView": 0,
      "byteOffset": 28824,
      "componentType": 5125,
      "count": 1068,
      "max": [
        1019
      ],
      "min": [
        0
      ],
      "type": "SCALAR"
    },
    {
      "bufferView": 2,
      "byteOffset": 115512,
      "componentType": 5126,
      "count": 1020,
      "max": [
        1.8276840448379517,
        1.9217379093170166,
        8.0988101959228516
      ],
      "min": [
        -1.8276840448379517,
        -1.9217379093170166,
        -1.0757086277008057
      ],
      "type": "VEC3"
    },
    {
      "bufferView": 2,
      "byteOffset": 127752,
      "componentType": 5126,
      "count": 1020,
      "max": [
        0.99504983425140381,
        0.95801031589508057,
        1
      ],
      "min": [
        -0.99504983425140381,
        -0.95801031589508057,
        -1
      ],
      "type": "VEC3"
    },
    {
      "bufferView": 1,
      "byteOffset": 38504,
      "componentType": 5126,
      "count": 1020,
      "max": [
        0.99472314119338989,
        0.9959796667098999
      ],
      "min": [
        0.0035910042934119701,
        0.0080354791134595871
      ],
      "type": "VEC2"
    },
    {
      "bufferView": 0,
      "byteOffset": 33096,
      "componentType": 5125,
      "count": 1068,
      "max": [
        1019
      ],
      "min": [
        0
      ],
      "type": "SCALAR"
    },
    {
      "bufferView": 2,
      "byteOffset": 139992,
      "componentType": 5126,
      "count": 1020,
      "max": [
        1.8276840448379517,
        1.9217379093170166,
        8.0988101959228516
      ],
      "min": [
        -1.8276840448379517,
        -1.9217379093170166,
        -1.0757086277008057
      ],
      "type": "VEC3"
    },
    {
      "bufferView": 2,
      "byteOffset": 152232,
      "componentType": 5126,
      "count": 1020,
      "max": [
        0.99504983425140381,
        0.95801031589508057,
        1
      ],
      "min": [
        -0.99504983425140381,
        -0.95801031589508057,
        -1
      ],
      "type": "VEC3"
    },
    {
      "bufferView": 1,
      "byteOffset": 46664,
      "componentType": 5126,
      "count": 1020,
      "max": [
        0.99472314119338989,
        0.9959796667098999
      ],
      "min": [
        0.0035910042934119701,
        0.0080354791134595871
      ],
      "type": "VEC2"
    },
    {
      "bufferView": 0,
      "byteOffset": 37368,
      "componentType": 5125,
      "count": 1068,
      "max": [
        1019
      ],
      "min": [
        0
      ],
      "type": "SCALAR"
    }
  ],
  "asset": {
    "extras": {
      "author": "Indie Gamer (https://sketchfab.com/its_sagar_bro)",
      "license": "CC-BY-4.0 (http://creativecommons.org/licenses/by/4.0/)",
      "source": "https://sketchfab.com/3d-models/low-poly-hospital-scene-a00aa1a1a9774a53869b6dd8b3497bd2",
      "title": "Low Poly Hospital Scene"
    },
    "generator": "Sketchfab-9.94.0",
    "version": "2.0"
  },
  "bufferViews": [
    {
      "buffer": 0,
      "byteLength": 41640,
      "byteOffset": 0,
      "name": "floatBufferViews",
      "target": 34963
    },
    {
      "buffer": 0,
      "byteLength": 54824,
      "byteOffset": 41640,
      "byteStride": 8,
      "name": "floatBufferViews",
      "target": 34962
    },
    {
      "buffer": 0,
      "byteLength": 164472,
      "byteOffset": 96464,
      "byteStride": 12,
      "name": "floatBufferViews",
      "target": 34962
    }
  ],
  "buffers": [
    {
      "byteLength": 260936,
      "uri": "scene.bin"
    }
  ],
  "images": [
    {
      "uri": "textures/Hospital_baseColor.png"
    },
    {
      "uri": "textures/Hospital_metallicRoughness.png"
    },
    {
      "uri": "textures/Ground_baseColor.png"
    },
    {
      "uri": "textures/Ground_metallicRoughness.png"
    },
    {
      "uri": "textures/Ambulance_baseColor.png"
    },
    {
      "uri": "textures/Ambulance_metallicRoughness.png"
    },
    {
      "uri": "textures/Tree_baseColor.png"
    },
    {
      "uri": "textures/Tree_metallicRoughness.png"
    }
  ],
  "materials": [
    {
      "doubleSided": true,
      "name": "Hospital",
      "occlusionTexture": {
        "index": 1,
        "strength": 1,
        "texCoord": 0
      },
      "pbrMetallicRoughness": {
        "baseColorFactor": [
          1,
          1,
          1,
          1
        ],
        "baseColorTexture": {
          "index": 0,
          "texCoord": 0
        },
        "metallicFactor": 0,
        "metallicRoughnessTexture": {
          "index": 1,
          "texCoord": 0
        },
        "roughnessFactor": 1
      }
    },
    {
      "doubleSided": true,
      "name": "Ground",
      "occlusionTexture": {
        "index": 3,
        "strength": 1,
        "texCoord": 0
      },
      "pbrMetallicRoughness": {
        "baseColorFactor": [
          1,
          1,
          1,
          1
        ],
        "baseColorTexture": {
          "index": 2,
          "texCoord": 0
        },
        "metallicFactor": 0,
        "metallicRoughnessTexture": {
          "index": 3,
          "texCoord": 0
        },
        "roughnessFactor": 0.98812974160675515
      }
    },
    {
      "doubleSided": true,
      "name": "Ambulance",
      "occlusionTexture": {
        "index": 5,
        "strength": 1,
        "texCoord": 0
      },
      "pbrMetallicRoughness": {
        "baseColorFactor": [
          1,
          1,
          1,
          1
        ],
        "baseColorTexture": {
          "index": 4,
          "texCoord": 0
        },
        "metallicFactor": 0,
        "metallicRoughnessTexture": {
          "index": 5,
          "texCoord": 0
        },
        "roughnessFactor": 1
      }
    },
    {
      "doubleSided": true,
      "emissiveFactor": [
        0,
        0,
        0
      ],
      "name": "Tree",
      "occlusionTexture": {
        "index": 7,
        "strength": 1,
        "texCoord": 0
      },
      "pbrMetallicRoughness": {
        "baseColorFactor": [
          1,
          1,
          1,
          1
        ],
        "baseColorTexture": {
          "index": 6,
          "texCoord": 0
        },
        "metallicFactor": 0,
        "metallicRoughnessTexture": {
          "index": 7,
          "texCoord": 0
        },
        "roughnessFactor": 1
      }
    }
  ],
  "meshes": [
    {
      "name": "Hospital_Hospital_0",
      "primitives": [
        {
          "attributes": {
            "NORMAL": 1,
            "POSITION": 0,
            "TEXCOORD_0": 2
          },
          "indices": 3,
          "material": 0,
          "mode": 4
        }
      ]
    },
    {
      "name": "Ground_Ground_0",
      "primitives": [
        {
          "attributes": {
            "NORMAL": 5,
            "POSITION": 4,
            "TEXCOORD_0": 6
          },
          "indices": 7,
          "material": 1,
          "mode": 4
        }
      ]
    },
    {
      "name": "Ambulance_Ambulance_0",
      "primitives": [
        {
          "attributes": {
            "NORMAL": 9,
            "POSITION": 8,
            "TEXCOORD_0": 10
          },
          "indices": 11,
          "material": 2,
          "mode": 4
        }
      ]
    },
    {
      "name": "Ambulance 2_Ambulance_0",
      "primitives": [
        {
          "attributes": {
            "NORMAL": 13,
            "POSITION": 12,
            "TEXCOORD_0": 14
          },
          "indices": 15,
          "material": 2,
          "mode": 4
        }
      ]
    },
    {
      "name": "Tree22_Tree_0",
      "primitives": [
        {
          "attributes": {
            "NORMAL": 17,
            "POSITION": 16,
            "TEXCOORD_0": 18
          },
          "indices": 19,
          "material": 3,
          "mode": 4
        }
      ]
    },
    {
      "name": "Tree22.001_Tree_0",
      "primitives": [
        {
          "attributes": {
            "NORMAL": 21,
            "POSITION": 20,
            "TEXCOORD_0": 22
          },
          "indices": 23,
          "material": 3,
          "mode": 4
        }
      ]
    },
    {
      "name": "Tree22.002_Tree_0",
      "primitives": [
        {
          "attributes": {
            "NORMAL": 25,
            "POSITION": 24,
            "TEXCOORD_0": 26
          },
          "indices": 27,
          "material": 3,
          "mode": 4
        }
      ]
    }
  ],
  "nodes": [
    {
      "children": [
        1
      ],
      "name": "RootNode (gltf orientation matrix)",
      "rotation": [
        -0.70710678118654746,
        -0,
        -0,
        0.70710678118654757
      ]
    },
    {
      "children": [
        2
      ],
      "name": "RootNode (model correction matrix)"
    },
    {
      "children": [
        3
      ],
      "matrix": [
        1,
        0,
        0,
        0,
        0,
        0,
        1,
        0,
        0,
        -1,
        0,
        0,
        0,
        0,
        0,
        1
      ],
      "name": "hospital1.fbx"
    },
    {
      "children": [
        4,
        6,
        8,
        10,
        12,
        14,
        16
      ],
      "name": "RootNode"
    },
    {
      "children": [
        5
      ],
      "matrix": [
        100,
        0,
        0,
        0,
        0,
        -1.6292067939183141e-05,
        -99.999999999998678,
        0,
        0,
        99.999999999998678,
        -1.6292067939183141e-05,
        0,
        0,
        100,
        0,
        1
      ],
      "name": "Hospital"
    },
    {
      "mesh": 0,
      "name": "Hospital_Hospital_0"
    },
    {
      "children": [
        7
      ],
      "matrix": [
        775.422119140625,
        0,
        0,
        0,
        0,
        -0.00012633229846584427,
        -775.42211914061477,
        0,
        0,
        775.42211914061477,
        -0.00012633229846584427,
        0,
        100.00262451171875,
        2.2330887317657471,
        4.7331929206848145,
        1
      ],
      "name": "Ground"
    },
    {
      "mesh": 1,
      "name": "Ground_Ground_0"
    },
    {
      "children": [
        9
      ],
      "matrix": [
        2.6572892640409392e-06,
        3.4056894585248029e-16,
        -6.1351447105401959,
        0,
        1.535456299781651,
        1.1592372538866129e-07,
        6.6504568911797043e-07,
        0,
        2.9437310924587149e-07,
        -3.8990900516509903,
        1.2726847078263707e-13,
        0,
        -63.186717987060547,
        19.797496795654297,
        -489.4820556640625,
        1
      ],
      "name": "Ambulance"
    },
    {
      "mesh": 2,
      "name": "Ambulance_Ambulance_0"
    },
    {
      "children": [
        11
      ],
      "matrix": [
        2.6572892640409392e-06,
        3.4056894585248029e-16,
        -6.1351447105401959,
        0,
        1.535456299781651,
        1.1592372538866129e-07,
        6.6504568911797043e-07,
        0,
        2.9437310924587149e-07,
        -3.8990900516509903,
        1.2726847078263707e-13,
        0,
        -63.186717987060547,
        19.797496795654297,
        -635.8111572265625,
        1
      ],
      "name": "Ambulance 2"
    },
    {
      "mesh": 3,
      "name": "Ambulance 2_Ambulance_0"
    },
    {
      "children": [
        13
      ],
      "matrix": [
        21.99229621887207,
        0,
        0,
        0,
        -0,
        -3.5829998413650428e-06,
        -21.992296218871779,
        0,
        0,
        21.992296218871779,
        -3.5829998413650428e-06,
        0,
        -68.504974365234375,
        18.081565856933594,
        655.50067138671875,
        1
      ],
      "name": "Tree22"
    },
    {
      "mesh": 4,
      "name": "Tree22_Tree_0"
    },
    {
      "children": [
        15
      ],
      "matrix": [
        26.503744125366211,
        0,
        0,
        0,
        0,
        -4.3180079993319233e-06,
        -26.503744125365859,
        0,
        0,
        26.503744125365859,
        -4.3180079993319233e-06,
        0,
        88.966598510742188,
        23.876008987426758,
        655.50067138671875,
        1
      ],
      "name": "Tree22.001"
    },
    {
      "mesh": 5,
      "name": "Tree22.001_Tree_0"
    },
    {
      "children": [
        17
      ],
      "matrix": [
        23.604623794555664,
        0,
        0,
        0,
        0,
        -3.8456813453975988e-06,
        -23.604623794555351,
        0,
        0,
        23.604623794555351,
        -3.8456813453975988e-06,
        0,
        235.64503479003906,
        23.876008987426758,
        655.50067138671875,
        1
      ],
      "name": "Tree22.002"
    },
    {
      "mesh": 6,
      "name": "Tree22.002_Tree_0"
    }
  ],
  "samplers": [
    {
      "magFilter": 9729,
      "minFilter": 9987,
      "wrapS": 10497,
      "wrapT": 10497
    }
  ],
  "scene": 0,
  "scenes": [
    {
      "name": "OSG_Scene",
      "nodes": [
        0
      ]
    }
  ],
  "textures": [
    {
      "sampler": 0,
      "source": 0
    },
    {
      "sampler": 0,
      "source": 1
    },
    {
      "sampler": 0,
      "source": 2
    },
    {
      "sampler": 0,
      "source": 3
    },
    {
      "sampler": 0,
      "source": 4
    },
    {
      "sampler": 0,
      "source": 5
    },
    {
      "sampler": 0,
      "source": 6
    },
    {
      "sampler": 0,
      "source": 7
    }
  ]
}

