{
  "accessors": [
    {
      "bufferView": 1,
      "componentType": 5126,
      "count": 36,
      "max": [
        0.51962000131607056,
        0.60000002384185791,
        1
      ],
      "min": [
        -0.51962000131607056,
        -0.60000002384185791,
        -1
      ],
      "type": "VEC3"
    },
    {
      "bufferView": 1,
      "byteOffset": 432,
      "componentType": 5126,
      "count": 36,
      "max": [
        0.98999685049057007,
        0.85736101865768433,
        1
      ],
      "min": [
        -0.98999685049057007,
        -0.85736101865768433,
        -1
      ],
      "type": "VEC3"
    },
    {
      "bufferView": 0,
      "componentType": 5125,
      "count": 60,
      "max": [
        35
      ],
      "min": [
        0
      ],
      "type": "SCALAR"
    },
    {
      "bufferView": 1,
      "byteOffset": 864,
      "componentType": 5126,
      "count": 72,
      "max": [
        1.4541000127792358,
        1.2984800338745117,
        3.6620399951934814
      ],
      "min": [
        -1.4751700162887573,
        -1.4852099418640137,
        0.68665999174118042
      ],
      "type": "VEC3"
    },
    {
      "bufferView": 1,
      "byteOffset": 1728,
      "componentType": 5126,
      "count": 72,
      "max": [
        0.89595192670822144,
        0.92215496301651001,
        0.93406087160110474
      ],
      "min": [
        -0.88771957159042358,
        -0.98996835947036743,
        -0.88046723604202271
      ],
      "type": "VEC3"
    },
    {
      "bufferView": 0,
      "byteOffset": 240,
      "componentType": 5125,
      "count": 72,
      "max": [
        71
      ],
      "min": [
        0
      ],
      "type": "SCALAR"
    }
  ],
  "asset": {
    "extras": {
      "author": "sirkitree (https://sketchfab.com/sirkitree)",
      "license": "CC-BY-4.0 (http://creativecommons.org/licenses/by/4.0/)",
      "source": "https://sketchfab.com/3d-models/tree-low-poly-single-trunk-76d4b22511aa41829da542b01ade8698",
      "title": "Tree Low-poly-single-trunk"
    },
    "generator": "Sketchfab-6.24.0",
    "version": "2.0"
  },
  "bufferViews": [
    {
      "buffer": 0,
      "byteLength": 528,
      "byteOffset": 0,
      "name": "floatBufferViews",
      "target": 34963
    },
    {
      "buffer": 0,
      "byteLength": 2592,
      "byteOffset": 528,
      "byteStride": 12,
      "name": "floatBufferViews",
      "target": 34962
    }
  ],
  "buffers": [
    {
      "byteLength": 3120,
      "uri": "scene.bin"
    }
  ],
  "materials": [
    {
      "doubleSided": true,
      "emissiveFactor": [
        0,
        0,
        0
      ],
      "name": "brown",
      "pbrMetallicRoughness": {
        "baseColorFactor": [
          0.47698998450000002,
          0.25553995369999999,
          0.18561473489999999,
          1
        ],
        "metallicFactor": 0,
        "roughnessFactor": 0.59999999999999998
      }
    },
    {
      "doubleSided": true,
      "emissiveFactor": [
        0,
        0,
        0
      ],
      "name": "green",
      "pbrMetallicRoughness": {
        "baseColorFactor": [
          0.026897164099999999,
          0.57047080989999999,
          0.027212824699999999,
          1
        ],
        "metallicFactor": 0,
        "roughnessFactor": 0.59999999999999998
      }
    }
  ],
  "meshes": [
    {
      "name": "Cylinder_0",
      "primitives": [
        {
          "attributes": {
            "NORMAL": 1,
            "POSITION": 0
          },
          "indices": 2,
          "material": 0,
          "mode": 4
        }
      ]
    },
    {
      "name": "Cylinder_1",
      "primitives": [
        {
          "attributes": {
            "NORMAL": 4,
            "POSITION": 3
          },
          "indices": 5,
          "material": 1,
          "mode": 4
        }
      ]
    }
  ],
  "nodes": [
    {
      "children": [
        1
      ],
      "name": "RootNode (gltf orientation matrix)",
      "rotation": [
        -0.70710678118654746,
        -0,
        -0,
        0.70710678118654757
      ]
    },
    {
      "children": [
        2
      ],
      "name": "RootNode (model correction matrix)"
    },
    {
      "children": [
        3
      ],
      "name": "Root"
    },
    {
      "children": [
        4,
        5
      ],
      "matrix": [
        0.69364000000000026,
        0,
        0,
        0,
        0,
        0.69364000000000026,
        0,
        0,
        0,
        0,
        0.69364000000000026,
        0,
        0,
        0,
        0.75182000000000015,
        1
      ],
      "name": "Cylinder"
    },
    {
      "mesh": 0,
      "name": "Cylinder_0"
    },
    {
      "mesh": 1,
      "name": "Cylinder_1"
    }
  ],
  "scene": 0,
  "scenes": [
    {
      "name": "OSG_Scene",
      "nodes": [
        0
      ]
    }
  ]
}

