{
  "accessors": [
    {
      "bufferView": 2,
      "componentType": 5126,
      "count": 1064,
      "max": [
        2.5100045204162598,
        6.4750485420227051,
        1.0387300252914429
      ],
      "min": [
        -2.4732251167297363,
        -8.2566633224487305,
        -1
      ],
      "type": "VEC3"
    },
    {
      "bufferView": 2,
      "byteOffset": 12768,
      "componentType": 5126,
      "count": 1064,
      "max": [
        1,
        1,
        1
      ],
      "min": [
        -1,
        -1,
        -1
      ],
      "type": "VEC3"
    },
    {
      "bufferView": 1,
      "componentType": 5126,
      "count": 1064,
      "max": [
        0.9988364577293396,
        0.99882996082305908
      ],
      "min": [
        0.0042344373650848866,
        0.004259670153260231
      ],
      "type": "VEC2"
    },
    {
      "bufferView": 0,
      "componentType": 5125,
      "count": 2730,
      "max": [
        1063
      ],
      "min": [
        0
      ],
      "type": "SCALAR"
    },
    {
      "bufferView": 2,
      "byteOffset": 25536,
      "componentType": 5126,
      "count": 656,
      "max": [
        5.576268196105957,
        9.4282741546630859,
        48.562526702880859
      ],
      "min": [
        -27.310855865478516,
        -9.4282741546630859,
        -1.0191413164138794
      ],
      "type": "VEC3"
    },
    {
      "bufferView": 2,
      "byteOffset": 33408,
      "componentType": 5126,
      "count": 656,
      "max": [
        1,
        1,
        1
      ],
      "min": [
        -1,
        -1,
        -1
      ],
      "type": "VEC3"
    },
    {
      "bufferView": 1,
      "byteOffset": 8512,
      "componentType": 5126,
      "count": 656,
      "max": [
        0.99993962049484253,
        0.99265062808990479
      ],
      "min": [
        0.00119353411719203,
        0.0072137047536671162
      ],
      "type": "VEC2"
    },
    {
      "bufferView": 0,
      "byteOffset": 10920,
      "componentType": 5125,
      "count": 1236,
      "max": [
        655
      ],
      "min": [
        0
      ],
      "type": "SCALAR"
    },
    {
      "bufferView": 2,
      "byteOffset": 41280,
      "componentType": 5126,
      "count": 30560,
      "max": [
        0.46246129274368286,
        4.0096664428710938,
        13.300067901611328
      ],
      "min": [
        -22.223556518554688,
        -4.0207047462463379,
        -0.073960304260253906
      ],
      "type": "VEC3"
    },
    {
      "bufferView": 2,
      "byteOffset": 408000,
      "componentType": 5126,
      "count": 30560,
      "max": [
        1,
        1,
        1
      ],
      "min": [
        -1,
        -1,
        -1
      ],
      "type": "VEC3"
    },
    {
      "bufferView": 1,
      "byteOffset": 13760,
      "componentType": 5126,
      "count": 30560,
      "max": [
        0.99997437000274658,
        0.99751269817352295
      ],
      "min": [
        0,
        0
      ],
      "type": "VEC2"
    },
    {
      "bufferView": 0,
      "byteOffset": 15864,
      "componentType": 5125,
      "count": 46368,
      "max": [
        30559
      ],
      "min": [
        0
      ],
      "type": "SCALAR"
    }
  ],
  "asset": {
    "extras": {
      "author": "mertbbicak (https://sketchfab.com/mertbbicak)",
      "license": "CC-BY-4.0 (http://creativecommons.org/licenses/by/4.0/)",
      "source": "https://sketchfab.com/3d-models/gas-station-dc5051e7dce243578344de3a07449a52",
      "title": "Gas Station"
    },
    "generator": "Sketchfab-8.95.0",
    "version": "2.0"
  },
  "bufferViews": [
    {
      "buffer": 0,
      "byteLength": 201336,
      "byteOffset": 0,
      "name": "floatBufferViews",
      "target": 34963
    },
    {
      "buffer": 0,
      "byteLength": 258240,
      "byteOffset": 201336,
      "byteStride": 8,
      "name": "floatBufferViews",
      "target": 34962
    },
    {
      "buffer": 0,
      "byteLength": 774720,
      "byteOffset": 459576,
      "byteStride": 12,
      "name": "floatBufferViews",
      "target": 34962
    }
  ],
  "buffers": [
    {
      "byteLength": 1234296,
      "uri": "scene.bin"
    }
  ],
  "images": [
    {
      "uri": "textures/gas.store.tex_baseColor.png"
    },
    {
      "uri": "textures/gas.station.tex_baseColor.png"
    },
    {
      "uri": "textures/gas.cube.tex_baseColor.png"
    }
  ],
  "materials": [
    {
      "doubleSided": true,
      "emissiveFactor": [
        0,
        0,
        0
      ],
      "name": "gas.store.tex",
      "pbrMetallicRoughness": {
        "baseColorFactor": [
          1,
          1,
          1,
          1
        ],
        "baseColorTexture": {
          "index": 0,
          "texCoord": 0
        },
        "metallicFactor": 0,
        "roughnessFactor": 0.82111456180001685
      }
    },
    {
      "doubleSided": true,
      "emissiveFactor": [
        0,
        0,
        0
      ],
      "name": "gas.station.tex",
      "pbrMetallicRoughness": {
        "baseColorFactor": [
          1,
          1,
          1,
          1
        ],
        "baseColorTexture": {
          "index": 1,
          "texCoord": 0
        },
        "metallicFactor": 0,
        "roughnessFactor": 0.82111456180001685
      }
    },
    {
      "doubleSided": true,
      "emissiveFactor": [
        0,
        0,
        0
      ],
      "name": "gas.cube.tex",
      "pbrMetallicRoughness": {
        "baseColorFactor": [
          1,
          1,
          1,
          1
        ],
        "baseColorTexture": {
          "index": 2,
          "texCoord": 0
        },
        "metallicFactor": 0,
        "roughnessFactor": 0.82111456180001685
      }
    }
  ],
  "meshes": [
    {
      "name": "gas.store.baked.002_gas.store.tex_0",
      "primitives": [
        {
          "attributes": {
            "NORMAL": 1,
            "POSITION": 0,
            "TEXCOORD_0": 2
          },
          "indices": 3,
          "material": 0,
          "mode": 4
        }
      ]
    },
    {
      "name": "gas.station.baked.002_gas.station.tex_0",
      "primitives": [
        {
          "attributes": {
            "NORMAL": 5,
            "POSITION": 4,
            "TEXCOORD_0": 6
          },
          "indices": 7,
          "material": 1,
          "mode": 4
        }
      ]
    },
    {
      "name": "gas.station.cubes.002_gas.cube.tex_0",
      "primitives": [
        {
          "attributes": {
            "NORMAL": 9,
            "POSITION": 8,
            "TEXCOORD_0": 10
          },
          "indices": 11,
          "material": 2,
          "mode": 4
        }
      ]
    }
  ],
  "nodes": [
    {
      "children": [
        1
      ],
      "name": "RootNode (gltf orientation matrix)",
      "rotation": [
        -0.70710678118654746,
        -0,
        -0,
        0.70710678118654757
      ]
    },
    {
      "children": [
        2
      ],
      "name": "RootNode (model correction matrix)"
    },
    {
      "children": [
        3
      ],
      "matrix": [
        1,
        0,
        0,
        0,
        0,
        0,
        1,
        0,
        0,
        -1,
        0,
        0,
        0,
        0,
        0,
        1
      ],
      "name": "gas-station.fbx"
    },
    {
      "children": [
        4,
        6,
        8
      ],
      "name": "RootNode"
    },
    {
      "children": [
        5
      ],
      "matrix": [
        292.56387329101562,
        0,
        0,
        0,
        -0,
        -4.7664705002077946e-05,
        -292.56387329101176,
        0,
        0,
        292.56387329101176,
        -4.7664705002077946e-05,
        0,
        -3342.3671875,
        292.72848510742188,
        5.1452650950523093e-05,
        1
      ],
      "name": "gas.store.baked.002"
    },
    {
      "mesh": 0,
      "name": "gas.store.baked.002_gas.store.tex_0"
    },
    {
      "children": [
        7
      ],
      "matrix": [
        100,
        0,
        0,
        0,
        0,
        -1.3349254747319589e-05,
        -81.937141418455951,
        0,
        0,
        13.573330879211246,
        -2.2113762884512501e-06,
        0,
        0,
        13.896968841552734,
        0,
        1
      ],
      "name": "gas.station.baked.002"
    },
    {
      "mesh": 1,
      "name": "gas.station.baked.002_gas.station.tex_0"
    },
    {
      "children": [
        9
      ],
      "matrix": [
        100,
        0,
        0,
        0,
        0,
        -1.3349254747319589e-05,
        -81.937141418455951,
        0,
        0,
        13.573330879211246,
        -2.2113762884512501e-06,
        0,
        0,
        13.896968841552734,
        0,
        1
      ],
      "name": "gas.station.cubes.002"
    },
    {
      "mesh": 2,
      "name": "gas.station.cubes.002_gas.cube.tex_0"
    }
  ],
  "samplers": [
    {
      "magFilter": 9729,
      "minFilter": 9987,
      "wrapS": 10497,
      "wrapT": 10497
    }
  ],
  "scene": 0,
  "scenes": [
    {
      "name": "OSG_Scene",
      "nodes": [
        0
      ]
    }
  ],
  "textures": [
    {
      "sampler": 0,
      "source": 0
    },
    {
      "sampler": 0,
      "source": 1
    },
    {
      "sampler": 0,
      "source": 2
    }
  ]
}

