{
  "accessors": [
    {
      "bufferView": 2,
      "componentType": 5126,
      "count": 682,
      "max": [
        322.65087890625,
        5538.8720703125,
        320.89501953125
      ],
      "min": [
        252.263916015625,
        5533.8720703125,
        300.06802368164062
      ],
      "type": "VEC3"
    },
    {
      "bufferView": 2,
      "byteOffset": 8184,
      "componentType": 5126,
      "count": 682,
      "max": [
        1,
        1,
        1
      ],
      "min": [
        -0.99999994039535522,
        -1,
        -1
      ],
      "type": "VEC3"
    },
    {
      "bufferView": 1,
      "componentType": 5126,
      "count": 682,
      "max": [
        1,
        1
      ],
      "min": [
        0,
        0
      ],
      "type": "VEC2"
    },
    {
      "bufferView": 0,
      "componentType": 5125,
      "count": 1908,
      "max": [
        681
      ],
      "min": [
        0
      ],
      "type": "SCALAR"
    },
    {
      "bufferView": 2,
      "byteOffset": 16368,
      "componentType": 5126,
      "count": 9158,
      "max": [
        555.21490478515625,
        5812.58740234375,
        357.00140380859375
      ],
      "min": [
        0,
        5360.642578125,
        0
      ],
      "type": "VEC3"
    },
    {
      "bufferView": 2,
      "byteOffset": 126264,
      "componentType": 5126,
      "count": 9158,
      "max": [
        1,
        1,
        1
      ],
      "min": [
        -1,
        -1,
        -1
      ],
      "type": "VEC3"
    },
    {
      "bufferView": 1,
      "byteOffset": 5456,
      "componentType": 5126,
      "count": 9158,
      "max": [
        1,
        1
      ],
      "min": [
        0,
        0
      ],
      "type": "VEC2"
    },
    {
      "bufferView": 0,
      "byteOffset": 7632,
      "componentType": 5125,
      "count": 19350,
      "max": [
        9157
      ],
      "min": [
        0
      ],
      "type": "SCALAR"
    },
    {
      "bufferView": 2,
      "byteOffset": 236160,
      "componentType": 5126,
      "count": 11277,
      "max": [
        422.88250732421875,
        5766.923828125,
        253.13032531738281
      ],
      "min": [
        148.18382263183594,
        5480.671875,
        9.1463623046875
      ],
      "type": "VEC3"
    },
    {
      "bufferView": 2,
      "byteOffset": 371484,
      "componentType": 5126,
      "count": 11277,
      "max": [
        1,
        1,
        1
      ],
      "min": [
        -1,
        -1,
        -1
      ],
      "type": "VEC3"
    },
    {
      "bufferView": 1,
      "byteOffset": 78720,
      "componentType": 5126,
      "count": 11277,
      "max": [
        1,
        1
      ],
      "min": [
        0,
        0
      ],
      "type": "VEC2"
    },
    {
      "bufferView": 0,
      "byteOffset": 85032,
      "componentType": 5125,
      "count": 23910,
      "max": [
        11276
      ],
      "min": [
        0
      ],
      "type": "SCALAR"
    },
    {
      "bufferView": 2,
      "byteOffset": 506808,
      "componentType": 5126,
      "count": 6554,
      "max": [
        411.82479858398438,
        5542.59375,
        227.46992492675781
      ],
      "min": [
        148.18382263183594,
        5479.9013671875,
        9.8203849792480469
      ],
      "type": "VEC3"
    },
    {
      "bufferView": 2,
      "byteOffset": 585456,
      "componentType": 5126,
      "count": 6554,
      "max": [
        1,
        1,
        1
      ],
      "min": [
        -1,
        -1,
        -1
      ],
      "type": "VEC3"
    },
    {
      "bufferView": 1,
      "byteOffset": 168936,
      "componentType": 5126,
      "count": 6554,
      "max": [
        1,
        1
      ],
      "min": [
        0,
        0
      ],
      "type": "VEC2"
    },
    {
      "bufferView": 0,
      "byteOffset": 180672,
      "componentType": 5125,
      "count": 13890,
      "max": [
        6553
      ],
      "min": [
        0
      ],
      "type": "SCALAR"
    },
    {
      "bufferView": 2,
      "byteOffset": 664104,
      "componentType": 5126,
      "count": 9961,
      "max": [
        12743.3681640625,
        5591.80419921875,
        597.1041259765625
      ],
      "min": [
        111.27581024169922,
        0,
        9.1219120025634766
      ],
      "type": "VEC3"
    },
    {
      "bufferView": 2,
      "byteOffset": 783636,
      "componentType": 5126,
      "count": 9961,
      "max": [
        1,
        1,
        1
      ],
      "min": [
        -1,
        -1,
        -1
      ],
      "type": "VEC3"
    },
    {
      "bufferView": 1,
      "byteOffset": 221368,
      "componentType": 5126,
      "count": 9961,
      "max": [
        1,
        1
      ],
      "min": [
        0,
        0
      ],
      "type": "VEC2"
    },
    {
      "bufferView": 0,
      "byteOffset": 236232,
      "componentType": 5125,
      "count": 21564,
      "max": [
        9960
      ],
      "min": [
        0
      ],
      "type": "SCALAR"
    },
    {
      "bufferView": 2,
      "byteOffset": 903168,
      "componentType": 5126,
      "count": 1464,
      "max": [
        385.809814453125,
        5669.3505859375,
        219.36592102050781
      ],
      "min": [
        103.93540191650391,
        5505.9521484375,
        9.1219139099121094
      ],
      "type": "VEC3"
    },
    {
      "bufferView": 2,
      "byteOffset": 920736,
      "componentType": 5126,
      "count": 1464,
      "max": [
        0.99188458919525146,
        0.97529441118240356,
        1
      ],
      "min": [
        -0.98996329307556152,
        -1,
        -1
      ],
      "type": "VEC3"
    },
    {
      "bufferView": 1,
      "byteOffset": 301056,
      "componentType": 5126,
      "count": 1464,
      "max": [
        1,
        1
      ],
      "min": [
        0,
        0
      ],
      "type": "VEC2"
    },
    {
      "bufferView": 0,
      "byteOffset": 322488,
      "componentType": 5125,
      "count": 2328,
      "max": [
        1463
      ],
      "min": [
        0
      ],
      "type": "SCALAR"
    }
  ],
  "asset": {
    "extras": {
      "author": "DEJIStudios (https://sketchfab.com/DEJIStudios)",
      "license": "CC-BY-4.0 (http://creativecommons.org/licenses/by/4.0/)",
      "source": "https://sketchfab.com/3d-models/low-poly-western-bank-16fb0dde7bf8406f9927a2e72a450478",
      "title": "Low Poly Western Bank"
    },
    "generator": "Sketchfab-8.77.2",
    "version": "2.0"
  },
  "bufferViews": [
    {
      "buffer": 0,
      "byteLength": 331800,
      "byteOffset": 0,
      "name": "floatBufferViews",
      "target": 34963
    },
    {
      "buffer": 0,
      "byteLength": 312768,
      "byteOffset": 331800,
      "byteStride": 8,
      "name": "floatBufferViews",
      "target": 34962
    },
    {
      "buffer": 0,
      "byteLength": 938304,
      "byteOffset": 644568,
      "byteStride": 12,
      "name": "floatBufferViews",
      "target": 34962
    }
  ],
  "buffers": [
    {
      "byteLength": 1582872,
      "uri": "scene.bin"
    }
  ],
  "materials": [
    {
      "doubleSided": true,
      "name": "StandardClone",
      "pbrMetallicRoughness": {
        "baseColorFactor": [
          1,
          1,
          1,
          1
        ],
        "metallicFactor": 0,
        "roughnessFactor": 0.59999999999999998
      }
    }
  ],
  "meshes": [
    {
      "primitives": [
        {
          "attributes": {
            "NORMAL": 1,
            "POSITION": 0,
            "TEXCOORD_0": 2
          },
          "indices": 3,
          "material": 0,
          "mode": 4
        }
      ]
    },
    {
      "primitives": [
        {
          "attributes": {
            "NORMAL": 5,
            "POSITION": 4,
            "TEXCOORD_0": 6
          },
          "indices": 7,
          "material": 0,
          "mode": 4
        }
      ]
    },
    {
      "primitives": [
        {
          "attributes": {
            "NORMAL": 9,
            "POSITION": 8,
            "TEXCOORD_0": 10
          },
          "indices": 11,
          "material": 0,
          "mode": 4
        }
      ]
    },
    {
      "primitives": [
        {
          "attributes": {
            "NORMAL": 13,
            "POSITION": 12,
            "TEXCOORD_0": 14
          },
          "indices": 15,
          "material": 0,
          "mode": 4
        }
      ]
    },
    {
      "primitives": [
        {
          "attributes": {
            "NORMAL": 17,
            "POSITION": 16,
            "TEXCOORD_0": 18
          },
          "indices": 19,
          "material": 0,
          "mode": 4
        }
      ]
    },
    {
      "primitives": [
        {
          "attributes": {
            "NORMAL": 21,
            "POSITION": 20,
            "TEXCOORD_0": 22
          },
          "indices": 23,
          "material": 0,
          "mode": 4
        }
      ]
    }
  ],
  "nodes": [
    {
      "children": [
        1
      ],
      "name": "RootNode (gltf orientation matrix)",
      "rotation": [
        -0.70710678118654746,
        -0,
        -0,
        0.70710678118654757
      ]
    },
    {
      "children": [
        2
      ],
      "name": "RootNode (model correction matrix)"
    },
    {
      "children": [
        3
      ],
      "matrix": [
        1,
        0,
        0,
        0,
        0,
        1,
        0,
        0,
        0,
        0,
        1,
        0,
        -154.13800048828125,
        -5521.4482421875,
        -0.10782480239868164,
        1
      ],
      "name": "skfb_offset"
    },
    {
      "children": [
        4,
        5,
        6,
        7,
        8,
        9
      ],
      "name": ""
    },
    {
      "mesh": 0,
      "name": ""
    },
    {
      "mesh": 1,
      "name": ""
    },
    {
      "mesh": 2,
      "name": ""
    },
    {
      "mesh": 3,
      "name": ""
    },
    {
      "mesh": 4,
      "name": ""
    },
    {
      "mesh": 5,
      "name": ""
    }
  ],
  "scene": 0,
  "scenes": [
    {
      "name": "OSG_Scene",
      "nodes": [
        0
      ]
    }
  ]
}

