{
  "accessors": [
    {
      "bufferView": 1,
      "componentType": 5126,
      "count": 812,
      "max": [
        1.0182976722717285,
        1,
        0.044332101941108704
      ],
      "min": [
        -1,
        -1,
        -0.35000011324882507
      ],
      "type": "VEC3"
    },
    {
      "bufferView": 1,
      "byteOffset": 9744,
      "componentType": 5126,
      "count": 812,
      "max": [
        0.29241645336151123,
        1,
        1
      ],
      "min": [
        -1,
        -1,
        0
      ],
      "type": "VEC3"
    },
    {
      "bufferView": 1,
      "byteOffset": 19488,
      "componentType": 5126,
      "count": 812,
      "max": [
        0,
        0,
        0.021351836621761322
      ],
      "min": [
        0,
        0,
        -0.014234557747840881
      ],
      "type": "VEC3"
    },
    {
      "bufferView": 1,
      "byteOffset": 29232,
      "componentType": 5126,
      "count": 812,
      "max": [
        0.3316609263420105,
        0.18912012875080109,
        0.742034912109375
      ],
      "min": [
        -0.69748580455780029,
        -0.18985837697982788,
        -0.25509220361709595
      ],
      "type": "VEC3"
    },
    {
      "bufferView": 1,
      "byteOffset": 38976,
      "componentType": 5126,
      "count": 812,
      "max": [
        0,
        0,
        0.014234557747840881
      ],
      "min": [
        0,
        0,
        -0.02846909873187542
      ],
      "type": "VEC3"
    },
    {
      "bufferView": 1,
      "byteOffset": 48720,
      "componentType": 5126,
      "count": 812,
      "max": [
        0.30301308631896973,
        0.22737574577331543,
        0.71674120426177979
      ],
      "min": [
        -0.72613364458084106,
        -0.22976160049438477,
        -0.28038591146469116
      ],
      "type": "VEC3"
    },
    {
      "bufferView": 1,
      "byteOffset": 58464,
      "componentType": 5126,
      "count": 812,
      "max": [
        0,
        0,
        0.014234557747840881
      ],
      "min": [
        0,
        0,
        -0.028469115495681763
      ],
      "type": "VEC3"
    },
    {
      "bufferView": 1,
      "byteOffset": 68208,
      "componentType": 5126,
      "count": 812,
      "max": [
        0.30301308631896973,
        0.22893409430980682,
        0.71674120426177979
      ],
      "min": [
        -0.72613364458084106,
        -0.23061306774616241,
        -0.28038591146469116
      ],
      "type": "VEC3"
    },
    {
      "bufferView": 0,
      "componentType": 5125,
      "count": 930,
      "max": [
        811
      ],
      "min": [
        0
      ],
      "type": "SCALAR"
    },
    {
      "bufferView": 1,
      "byteOffset": 77952,
      "componentType": 5126,
      "count": 792,
      "max": [
        2.6554996967315674,
        1,
        0.27017995715141296
      ],
      "min": [
        -1,
        -1,
        -0.35000011324882507
      ],
      "type": "VEC3"
    },
    {
      "bufferView": 1,
      "byteOffset": 87456,
      "componentType": 5126,
      "count": 792,
      "max": [
        0.32279229164123535,
        1,
        1
      ],
      "min": [
        -1,
        -1,
        0
      ],
      "type": "VEC3"
    },
    {
      "bufferView": 1,
      "byteOffset": 96960,
      "componentType": 5126,
      "count": 792,
      "max": [
        0,
        0,
        0
      ],
      "min": [
        0,
        0,
        0
      ],
      "type": "VEC3"
    },
    {
      "bufferView": 1,
      "byteOffset": 106464,
      "componentType": 5126,
      "count": 792,
      "max": [
        1.7881393432617188e-07,
        3.5203993320465088e-07,
        5.9604644775390625e-08
      ],
      "min": [
        -2.9802322387695312e-07,
        -2.9802322387695312e-07,
        -1.1920928955078125e-07
      ],
      "type": "VEC3"
    },
    {
      "bufferView": 1,
      "byteOffset": 115968,
      "componentType": 5126,
      "count": 792,
      "max": [
        0,
        0,
        0
      ],
      "min": [
        0,
        0,
        0
      ],
      "type": "VEC3"
    },
    {
      "bufferView": 1,
      "byteOffset": 125472,
      "componentType": 5126,
      "count": 792,
      "max": [
        1.7881393432617188e-07,
        3.5203993320465088e-07,
        5.9604644775390625e-08
      ],
      "min": [
        -2.9802322387695312e-07,
        -2.9802322387695312e-07,
        -1.1920928955078125e-07
      ],
      "type": "VEC3"
    },
    {
      "bufferView": 1,
      "byteOffset": 134976,
      "componentType": 5126,
      "count": 792,
      "max": [
        0,
        0,
        0
      ],
      "min": [
        0,
        0,
        -0.028469111770391464
      ],
      "type": "VEC3"
    },
    {
      "bufferView": 1,
      "byteOffset": 144480,
      "componentType": 5126,
      "count": 792,
      "max": [
        8.9406967163085938e-08,
        0.11163833737373352,
        5.9604644775390625e-08
      ],
      "min": [
        -0.089655458927154541,
        -0.1059427484869957,
        -0.06622081995010376
      ],
      "type": "VEC3"
    },
    {
      "bufferView": 0,
      "byteOffset": 3720,
      "componentType": 5125,
      "count": 1098,
      "max": [
        791
      ],
      "min": [
        0
      ],
      "type": "SCALAR"
    },
    {
      "bufferView": 2,
      "componentType": 5126,
      "count": 3,
      "max": [
        0.066666670143604279
      ],
      "min": [
        0
      ],
      "type": "SCALAR"
    },
    {
      "bufferView": 2,
      "byteOffset": 12,
      "componentType": 5126,
      "count": 9,
      "max": [
        0.005511054303497076
      ],
      "min": [
        0
      ],
      "type": "SCALAR"
    },
    {
      "bufferView": 2,
      "byteOffset": 48,
      "componentType": 5126,
      "count": 3,
      "max": [
        0.066666670143604279
      ],
      "min": [
        0
      ],
      "type": "SCALAR"
    },
    {
      "bufferView": 2,
      "byteOffset": 60,
      "componentType": 5126,
      "count": 9,
      "max": [
        0.005511054303497076
      ],
      "min": [
        0
      ],
      "type": "SCALAR"
    },
    {
      "bufferView": 2,
      "byteOffset": 96,
      "componentType": 5126,
      "count": 3,
      "max": [
        0.066666670143604279
      ],
      "min": [
        0
      ],
      "type": "SCALAR"
    },
    {
      "bufferView": 2,
      "byteOffset": 108,
      "componentType": 5126,
      "count": 9,
      "max": [
        0.005511054303497076
      ],
      "min": [
        0
      ],
      "type": "SCALAR"
    },
    {
      "bufferView": 2,
      "byteOffset": 144,
      "componentType": 5126,
      "count": 3,
      "max": [
        0.066666670143604279
      ],
      "min": [
        0
      ],
      "type": "SCALAR"
    },
    {
      "bufferView": 2,
      "byteOffset": 156,
      "componentType": 5126,
      "count": 9,
      "max": [
        0.005511054303497076
      ],
      "min": [
        0
      ],
      "type": "SCALAR"
    },
    {
      "bufferView": 2,
      "byteOffset": 192,
      "componentType": 5126,
      "count": 3,
      "max": [
        0.066666670143604279
      ],
      "min": [
        0
      ],
      "type": "SCALAR"
    },
    {
      "bufferView": 2,
      "byteOffset": 204,
      "componentType": 5126,
      "count": 9,
      "max": [
        0.005511054303497076
      ],
      "min": [
        0
      ],
      "type": "SCALAR"
    },
    {
      "bufferView": 2,
      "byteOffset": 240,
      "componentType": 5126,
      "count": 3,
      "max": [
        0.066666670143604279
      ],
      "min": [
        0
      ],
      "type": "SCALAR"
    },
    {
      "bufferView": 2,
      "byteOffset": 252,
      "componentType": 5126,
      "count": 9,
      "max": [
        0.005511054303497076
      ],
      "min": [
        0
      ],
      "type": "SCALAR"
    },
    {
      "bufferView": 2,
      "byteOffset": 288,
      "componentType": 5126,
      "count": 3,
      "max": [
        0.066666670143604279
      ],
      "min": [
        0
      ],
      "type": "SCALAR"
    },
    {
      "bufferView": 2,
      "byteOffset": 300,
      "componentType": 5126,
      "count": 9,
      "max": [
        0.005511054303497076
      ],
      "min": [
        0
      ],
      "type": "SCALAR"
    },
    {
      "bufferView": 2,
      "byteOffset": 336,
      "componentType": 5126,
      "count": 3,
      "max": [
        0.066666670143604279
      ],
      "min": [
        0
      ],
      "type": "SCALAR"
    },
    {
      "bufferView": 2,
      "byteOffset": 348,
      "componentType": 5126,
      "count": 9,
      "max": [
        0.005511054303497076
      ],
      "min": [
        0
      ],
      "type": "SCALAR"
    },
    {
      "bufferView": 2,
      "byteOffset": 384,
      "componentType": 5126,
      "count": 3,
      "max": [
        0.066666670143604279
      ],
      "min": [
        0
      ],
      "type": "SCALAR"
    },
    {
      "bufferView": 2,
      "byteOffset": 396,
      "componentType": 5126,
      "count": 9,
      "max": [
        0.005511054303497076
      ],
      "min": [
        0
      ],
      "type": "SCALAR"
    },
    {
      "bufferView": 2,
      "byteOffset": 432,
      "componentType": 5126,
      "count": 3,
      "max": [
        0.066666670143604279
      ],
      "min": [
        0
      ],
      "type": "SCALAR"
    },
    {
      "bufferView": 2,
      "byteOffset": 444,
      "componentType": 5126,
      "count": 9,
      "max": [
        0.005511054303497076
      ],
      "min": [
        0
      ],
      "type": "SCALAR"
    },
    {
      "bufferView": 2,
      "byteOffset": 480,
      "componentType": 5126,
      "count": 3,
      "max": [
        0.066666670143604279
      ],
      "min": [
        0
      ],
      "type": "SCALAR"
    },
    {
      "bufferView": 2,
      "byteOffset": 492,
      "componentType": 5126,
      "count": 9,
      "max": [
        0.005511054303497076
      ],
      "min": [
        0
      ],
      "type": "SCALAR"
    },
    {
      "bufferView": 2,
      "byteOffset": 528,
      "componentType": 5126,
      "count": 3,
      "max": [
        0.066666670143604279
      ],
      "min": [
        0
      ],
      "type": "SCALAR"
    },
    {
      "bufferView": 2,
      "byteOffset": 540,
      "componentType": 5126,
      "count": 9,
      "max": [
        0.005511054303497076
      ],
      "min": [
        0
      ],
      "type": "SCALAR"
    },
    {
      "bufferView": 2,
      "byteOffset": 576,
      "componentType": 5126,
      "count": 3,
      "max": [
        0.066666670143604279
      ],
      "min": [
        0
      ],
      "type": "SCALAR"
    },
    {
      "bufferView": 2,
      "byteOffset": 588,
      "componentType": 5126,
      "count": 9,
      "max": [
        0.005511054303497076
      ],
      "min": [
        0
      ],
      "type": "SCALAR"
    },
    {
      "bufferView": 2,
      "byteOffset": 624,
      "componentType": 5126,
      "count": 3,
      "max": [
        0.066666670143604279
      ],
      "min": [
        0
      ],
      "type": "SCALAR"
    },
    {
      "bufferView": 2,
      "byteOffset": 636,
      "componentType": 5126,
      "count": 9,
      "max": [
        0.005511054303497076
      ],
      "min": [
        0
      ],
      "type": "SCALAR"
    },
    {
      "bufferView": 2,
      "byteOffset": 672,
      "componentType": 5126,
      "count": 3,
      "max": [
        0.066666670143604279
      ],
      "min": [
        0
      ],
      "type": "SCALAR"
    },
    {
      "bufferView": 2,
      "byteOffset": 684,
      "componentType": 5126,
      "count": 9,
      "max": [
        0.005511054303497076
      ],
      "min": [
        0
      ],
      "type": "SCALAR"
    },
    {
      "bufferView": 2,
      "byteOffset": 720,
      "componentType": 5126,
      "count": 3,
      "max": [
        0.066666670143604279
      ],
      "min": [
        0
      ],
      "type": "SCALAR"
    },
    {
      "bufferView": 2,
      "byteOffset": 732,
      "componentType": 5126,
      "count": 9,
      "max": [
        0.005511054303497076
      ],
      "min": [
        0
      ],
      "type": "SCALAR"
    }
  ],
  "animations": [
    {
      "channels": [
        {
          "sampler": 0,
          "target": {
            "node": 6,
            "path": "weights"
          }
        },
        {
          "sampler": 1,
          "target": {
            "node": 7,
            "path": "weights"
          }
        }
      ],
      "name": "Plane|KeyAction",
      "samplers": [
        {
          "input": 18,
          "interpolation": "LINEAR",
          "output": 19
        },
        {
          "input": 20,
          "interpolation": "LINEAR",
          "output": 21
        }
      ]
    },
    {
      "channels": [
        {
          "sampler": 0,
          "target": {
            "node": 6,
            "path": "weights"
          }
        },
        {
          "sampler": 1,
          "target": {
            "node": 7,
            "path": "weights"
          }
        }
      ],
      "name": "Plane|KeyAction.001",
      "samplers": [
        {
          "input": 22,
          "interpolation": "LINEAR",
          "output": 23
        },
        {
          "input": 24,
          "interpolation": "LINEAR",
          "output": 25
        }
      ]
    },
    {
      "channels": [
        {
          "sampler": 0,
          "target": {
            "node": 6,
            "path": "weights"
          }
        },
        {
          "sampler": 1,
          "target": {
            "node": 7,
            "path": "weights"
          }
        }
      ],
      "name": "Plane|KeyAction.002",
      "samplers": [
        {
          "input": 26,
          "interpolation": "LINEAR",
          "output": 27
        },
        {
          "input": 28,
          "interpolation": "LINEAR",
          "output": 29
        }
      ]
    },
    {
      "channels": [
        {
          "sampler": 0,
          "target": {
            "node": 6,
            "path": "weights"
          }
        },
        {
          "sampler": 1,
          "target": {
            "node": 7,
            "path": "weights"
          }
        }
      ],
      "name": "Plane|KeyAction.003",
      "samplers": [
        {
          "input": 30,
          "interpolation": "LINEAR",
          "output": 31
        },
        {
          "input": 32,
          "interpolation": "LINEAR",
          "output": 33
        }
      ]
    },
    {
      "channels": [
        {
          "sampler": 0,
          "target": {
            "node": 6,
            "path": "weights"
          }
        },
        {
          "sampler": 1,
          "target": {
            "node": 7,
            "path": "weights"
          }
        }
      ],
      "name": "Plane|KeyAction.004",
      "samplers": [
        {
          "input": 34,
          "interpolation": "LINEAR",
          "output": 35
        },
        {
          "input": 36,
          "interpolation": "LINEAR",
          "output": 37
        }
      ]
    },
    {
      "channels": [
        {
          "sampler": 0,
          "target": {
            "node": 6,
            "path": "weights"
          }
        },
        {
          "sampler": 1,
          "target": {
            "node": 7,
            "path": "weights"
          }
        }
      ],
      "name": "Plane|wave-a",
      "samplers": [
        {
          "input": 38,
          "interpolation": "LINEAR",
          "output": 39
        },
        {
          "input": 40,
          "interpolation": "LINEAR",
          "output": 41
        }
      ]
    },
    {
      "channels": [
        {
          "sampler": 0,
          "target": {
            "node": 6,
            "path": "weights"
          }
        },
        {
          "sampler": 1,
          "target": {
            "node": 7,
            "path": "weights"
          }
        }
      ],
      "name": "Plane|wave-b",
      "samplers": [
        {
          "input": 42,
          "interpolation": "LINEAR",
          "output": 43
        },
        {
          "input": 44,
          "interpolation": "LINEAR",
          "output": 45
        }
      ]
    },
    {
      "channels": [
        {
          "sampler": 0,
          "target": {
            "node": 6,
            "path": "weights"
          }
        },
        {
          "sampler": 1,
          "target": {
            "node": 7,
            "path": "weights"
          }
        }
      ],
      "name": "Plane|wave-c",
      "samplers": [
        {
          "input": 46,
          "interpolation": "LINEAR",
          "output": 47
        },
        {
          "input": 48,
          "interpolation": "LINEAR",
          "output": 49
        }
      ]
    }
  ],
  "asset": {
    "extras": {
      "author": "DenDen (https://sketchfab.com/kshb926)",
      "license": "CC-BY-4.0 (http://creativecommons.org/licenses/by/4.0/)",
      "source": "https://sketchfab.com/3d-models/beach-3ca3119ca41149eba78c0dce52243285",
      "title": "Beach"
    },
    "generator": "Sketchfab-5.47.0",
    "version": "2.0"
  },
  "bufferViews": [
    {
      "buffer": 0,
      "byteLength": 8112,
      "byteOffset": 0,
      "name": "floatBufferViews",
      "target": 34963
    },
    {
      "buffer": 0,
      "byteLength": 153984,
      "byteOffset": 8112,
      "byteStride": 12,
      "name": "floatBufferViews",
      "target": 34962
    },
    {
      "buffer": 0,
      "byteLength": 768,
      "byteOffset": 162096,
      "name": "floatBufferViews"
    }
  ],
  "buffers": [
    {
      "byteLength": 162864,
      "uri": "scene.bin"
    }
  ],
  "materials": [
    {
      "doubleSided": true,
      "emissiveFactor": [
        0,
        0,
        0
      ],
      "name": "material",
      "pbrMetallicRoughness": {
        "baseColorFactor": [
          0.18434400000000001,
          0.36661120000000003,
          0.64000000000000012,
          1
        ],
        "metallicFactor": 0,
        "roughnessFactor": 0.59999999999999998
      }
    },
    {
      "doubleSided": true,
      "emissiveFactor": [
        0,
        0,
        0
      ],
      "name": "Sand",
      "pbrMetallicRoughness": {
        "baseColorFactor": [
          0.80000000000000004,
          0.4473608,
          0.13042240000000002,
          1
        ],
        "metallicFactor": 0,
        "roughnessFactor": 0.59999999999999998
      }
    }
  ],
  "meshes": [
    {
      "name": "0",
      "primitives": [
        {
          "attributes": {
            "NORMAL": 1,
            "POSITION": 0
          },
          "indices": 8,
          "material": 0,
          "mode": 4,
          "targets": [
            {
              "NORMAL": 3,
              "POSITION": 2
            },
            {
              "NORMAL": 5,
              "POSITION": 4
            },
            {
              "NORMAL": 7,
              "POSITION": 6
            }
          ]
        }
      ],
      "weights": [
        0,
        0,
        0
      ]
    },
    {
      "name": "1",
      "primitives": [
        {
          "attributes": {
            "NORMAL": 10,
            "POSITION": 9
          },
          "indices": 17,
          "material": 1,
          "mode": 4,
          "targets": [
            {
              "NORMAL": 12,
              "POSITION": 11
            },
            {
              "NORMAL": 14,
              "POSITION": 13
            },
            {
              "NORMAL": 16,
              "POSITION": 15
            }
          ]
        }
      ],
      "weights": [
        0,
        0,
        0
      ]
    }
  ],
  "nodes": [
    {
      "children": [
        1
      ],
      "name": "RootNode (gltf orientation matrix)",
      "rotation": [
        -0.70710678118654746,
        -0,
        -0,
        0.70710678118654757
      ]
    },
    {
      "children": [
        2
      ],
      "name": "RootNode (model correction matrix)"
    },
    {
      "children": [
        3
      ],
      "matrix": [
        1,
        0,
        0,
        0,
        0,
        0,
        1,
        0,
        0,
        -1,
        0,
        0,
        0,
        0,
        0,
        1
      ],
      "name": "b9d15efc1e2049598465adccad9caee2.fbx"
    },
    {
      "children": [
        4
      ],
      "name": ""
    },
    {
      "children": [
        5
      ],
      "name": "RootNode"
    },
    {
      "children": [
        6,
        7
      ],
      "name": "Plane",
      "rotation": [
        -0.7071068286895752,
        0,
        0,
        0.70710670948028564
      ],
      "scale": [
        1,
        1,
        1.0471022129058838
      ],
      "translation": [
        0,
        0.10000000149011612,
        0
      ]
    },
    {
      "mesh": 0,
      "name": "0"
    },
    {
      "mesh": 1,
      "name": "1"
    }
  ],
  "scene": 0,
  "scenes": [
    {
      "name": "OSG_Scene",
      "nodes": [
        0
      ]
    }
  ]
}

